<svg width="109" height="96" viewBox="0 0 109 96" fill="none" xmlns="http://www.w3.org/2000/svg">
<path d="M26.4303 29.4783L26.4303 30.3647C26.4671 30.3647 26.5038 30.3624 26.5403 30.3579L26.4303 29.4783ZM29.0098 30.0492C29.4955 29.9884 29.8401 29.5454 29.7794 29.0597C29.7187 28.5739 29.2757 28.2294 28.7899 28.2901L29.0098 30.0492ZM32.7113 27.8948C32.263 28.0913 32.0589 28.6141 32.2554 29.0625C32.4519 29.5108 32.9747 29.7149 33.4231 29.5184L32.7113 27.8948ZM34.7826 29.5438C35.245 29.7046 35.7502 29.46 35.9109 28.9977C36.0717 28.5353 35.8271 28.0301 35.3647 27.8694L34.7826 29.5438ZM38.112 30.742C38.0428 30.2574 37.5938 29.9207 37.1092 29.9899C36.6246 30.0592 36.2878 30.5081 36.3571 30.9927L38.112 30.742ZM36.3084 35.3434L35.7547 34.6513L36.3084 35.3434ZM36.6171 41.3629L37.2842 41.9466C37.5988 41.5871 37.5719 41.043 37.2234 40.7163L36.6171 41.3629ZM33.3759 45.0672L33.0091 45.8742C33.3652 46.036 33.7853 45.9453 34.0429 45.6509L33.3759 45.0672ZM26.5847 41.9803L25.7295 41.7471C25.6151 42.1667 25.822 42.6073 26.2179 42.7873L26.5847 41.9803ZM27.0477 33.8L27.8967 33.5453C27.8025 33.2314 27.5429 32.9951 27.2215 32.9308L27.0477 33.8ZM36.1968 27.0899C36.1564 27.5777 36.5191 28.006 37.007 28.0464C37.4948 28.0869 37.9231 27.7242 37.9635 27.2363L36.1968 27.0899ZM36.9258 24.848L36.1226 24.4731C36.0559 24.6161 36.0286 24.7742 36.0434 24.9312L36.9258 24.848ZM33.6846 22.5328H32.7982C32.7982 22.8798 33.0007 23.1949 33.3164 23.3391C33.6321 23.4832 34.0029 23.4299 34.2651 23.2026L33.6846 22.5328ZM29.0542 22.2241L28.4467 22.8695C28.6793 23.0885 29.0118 23.1653 29.3168 23.0707C29.6219 22.976 29.8525 22.7245 29.9204 22.4124L29.0542 22.2241ZM24.2695 24.848L24.1813 25.7299C24.4666 25.7585 24.7481 25.6472 24.9368 25.4313C25.1256 25.2154 25.1982 24.9216 25.1318 24.6427L24.2695 24.848ZM24.7131 30.8105C25.1931 30.9065 25.66 30.5952 25.756 30.1152C25.852 29.6352 25.5407 29.1682 25.0607 29.0722L24.7131 30.8105ZM26.5403 30.3579L29.0098 30.0492L28.7899 28.2901L26.3204 28.5988L26.5403 30.3579ZM33.4231 29.5184C33.7334 29.3824 33.9066 29.3576 34.0447 29.3617C34.2056 29.3663 34.4021 29.4115 34.7826 29.5438L35.3647 27.8694C34.9617 27.7293 34.5468 27.6027 34.0962 27.5897C33.6227 27.5759 33.1845 27.6874 32.7113 27.8948L33.4231 29.5184ZM36.3571 30.9927C36.4472 31.6236 36.448 32.4659 36.3217 33.2217C36.2589 33.5975 36.1687 33.9264 36.0579 34.1853C35.944 34.4515 35.8311 34.5902 35.7547 34.6513L36.8622 36.0356C37.2488 35.7263 37.509 35.3003 37.6876 34.8829C37.8694 34.4581 37.9915 33.9844 38.0702 33.514C38.2268 32.5771 38.2277 31.5517 38.112 30.742L36.3571 30.9927ZM35.7547 34.6513C35.0766 35.1938 34.7038 35.2771 34.2458 35.5111C34.0032 35.6352 33.69 35.8337 33.4844 36.2232C33.2995 36.5735 33.2612 36.9689 33.2612 37.35H35.034C35.034 37.0519 35.0729 37.0113 35.052 37.0509C35.0104 37.1298 34.948 37.1431 35.0526 37.0896C35.2892 36.9687 35.9968 36.7279 36.8622 36.0356L35.7547 34.6513ZM33.2612 37.35C33.2612 38.3229 33.8202 39.3293 34.3469 40.0838C34.9026 40.8798 35.5627 41.5894 36.0109 42.0096L37.2234 40.7163C36.8484 40.3648 36.2738 39.747 35.8005 39.069C35.2982 38.3495 35.034 37.7353 35.034 37.35H33.2612ZM35.9501 40.7793L32.7088 44.4836L34.0429 45.6509L37.2842 41.9466L35.9501 40.7793ZM33.7427 44.2603L26.9515 41.1734L26.2179 42.7873L33.0091 45.8742L33.7427 44.2603ZM26.5847 41.9803C27.4398 42.2135 27.4399 42.2134 27.4399 42.2132C27.4399 42.2131 27.44 42.2129 27.44 42.2128C27.4401 42.2124 27.4402 42.212 27.4404 42.2115C27.4406 42.2106 27.441 42.2093 27.4414 42.2077C27.4423 42.2045 27.4435 42.2 27.445 42.1944C27.448 42.1832 27.4522 42.1671 27.4576 42.1465C27.4684 42.1053 27.4837 42.0457 27.5027 41.9696C27.5406 41.8173 27.5931 41.5984 27.6529 41.3269C27.7723 40.7846 27.9216 40.0281 28.0413 39.1703C28.2755 37.4922 28.4183 35.2839 27.8967 33.5453L26.1987 34.0547C26.6032 35.403 26.5145 37.2849 26.2856 38.9253C26.1738 39.7267 26.0337 40.4365 25.9216 40.9456C25.8656 41.1998 25.8169 41.403 25.7824 41.5413C25.7652 41.6104 25.7516 41.6633 25.7425 41.6982C25.7379 41.7157 25.7345 41.7286 25.7323 41.7368C25.7312 41.7409 25.7304 41.7439 25.7299 41.7456C25.7297 41.7464 25.7296 41.747 25.7295 41.7473C25.7295 41.7474 25.7294 41.7474 25.7294 41.7474C25.7294 41.7474 25.7295 41.7473 25.7295 41.7473C25.7295 41.7472 25.7295 41.7471 26.5847 41.9803ZM27.2215 32.9308C26.0472 32.696 25.5843 31.9267 25.5391 31.3397C25.5156 31.0333 25.6015 30.7897 25.7303 30.636C25.8461 30.4977 26.0513 30.3647 26.4303 30.3647L26.4303 28.592C25.5746 28.592 24.8537 28.9219 24.3714 29.4975C23.9021 30.0576 23.718 30.7787 23.7716 31.4756C23.8808 32.8951 24.9613 34.2867 26.8739 34.6692L27.2215 32.9308ZM37.9635 27.2363C38.0532 26.1541 37.8963 25.6979 37.8083 24.7647L36.0434 24.9312C36.1593 26.1594 36.2696 26.2123 36.1968 27.0899L37.9635 27.2363ZM37.7291 25.2228C38.3914 23.8034 38.1911 22.2494 37.142 21.3855C36.0365 20.4751 34.4604 20.6875 33.1041 21.863L34.2651 23.2026C35.224 22.3716 35.8086 22.5839 36.0151 22.754C36.278 22.9705 36.5406 23.5774 36.1226 24.4731L37.7291 25.2228ZM34.571 22.5328C34.571 20.4277 33.3706 18.9517 31.7231 18.8319C30.1019 18.714 28.6396 19.9587 28.1881 22.0358L29.9204 22.4124C30.2405 20.9395 31.0935 20.5636 31.5945 20.6C32.0692 20.6345 32.7982 21.0879 32.7982 22.5328H34.571ZM29.6617 21.5786C28.1518 20.1576 26.341 19.8174 24.9438 20.6277C23.5578 21.4316 22.955 23.154 23.4072 25.0533L25.1318 24.6427C24.8122 23.3006 25.2898 22.4764 25.8332 22.1612C26.3653 21.8526 27.3327 21.8211 28.4467 22.8695L29.6617 21.5786ZM24.3577 23.966C23.3514 23.8654 22.4832 24.1672 21.8829 24.7899C21.2983 25.3963 21.0497 26.2218 21.0882 27.0317C21.1667 28.6802 22.4118 30.3503 24.7131 30.8105L25.0607 29.0722C23.5033 28.7607 22.8962 27.7298 22.859 26.9473C22.8397 26.5417 22.9673 26.2193 23.1592 26.0202C23.3354 25.8374 23.6441 25.6762 24.1813 25.7299L24.3577 23.966Z" fill="#4A94E8"/>
<path d="M21.8002 42.7528C20.2558 44.2972 19.2381 46.4263 18.8677 47.5375C20.5655 48.7723 23.1276 51.0875 29.0545 52.9397C34.9814 54.7918 44.7463 50.6245 47.7303 48.0006C46.1354 45.9427 42.6369 41.6416 41.4021 40.9007C40.1674 40.1598 37.0805 39.9746 35.6914 39.9746C35.7943 41.0036 34.9505 43.185 31.9871 43.6789C28.2828 44.2963 27.048 39.8203 26.4306 39.9746C25.9367 40.0981 23.3446 41.2084 21.8002 42.7528Z" fill="#B4D5FA" stroke="#B4D5FA" stroke-width="1.55115" stroke-linecap="round" stroke-linejoin="round"/>
<path d="M30.959 27.6406C27.6868 27.9357 29.7319 31.3293 31.2317 31.3293C32.7315 31.3293 34.2313 27.3455 30.959 27.6406Z" stroke="#4A94E8" stroke-width="1.77275" stroke-linecap="round" stroke-linejoin="round"/>
<path d="M36.8242 27.3327C33.552 27.6032 35.5972 30.714 37.0969 30.714C38.5967 30.714 40.0965 27.0622 36.8242 27.3327Z" stroke="#4A94E8" stroke-width="1.77275" stroke-linecap="round" stroke-linejoin="round"/>
<path d="M32.4503 12.5394C25.0461 12.5394 19.7128 15.9318 16.2515 20.1779C12.8161 24.3923 11.1903 29.4871 11.1903 33.0277H12.963C12.963 29.9314 14.4242 25.2253 17.6256 21.298C20.8012 17.4023 25.6547 14.3122 32.4503 14.3122V12.5394ZM11.1903 33.0277C11.1903 36.5156 12.436 41.8795 15.8455 46.392C19.2859 50.9455 24.9068 54.5964 33.5307 54.5964V52.8236C25.4853 52.8236 20.3792 49.4518 17.2599 45.3233C14.1097 41.1539 12.963 36.1766 12.963 33.0277H11.1903ZM33.5307 54.5964C42.1749 54.5964 47.5045 50.8095 50.6337 46.0141C53.7279 41.2722 54.6364 35.6068 54.6364 31.7929H52.8636C52.8636 35.3876 51.9971 40.6808 49.149 45.0453C46.3359 49.3563 41.5558 52.8236 33.5307 52.8236V54.5964ZM54.6364 31.7929C54.6364 23.9218 47.1662 12.5394 32.4503 12.5394V14.3122C46.134 14.3122 52.8636 24.8468 52.8636 31.7929H54.6364Z" fill="#002B5C"/>
<path d="M31.3976 59.2932C31.9202 50.7069 42.7018 37.5039 63.8793 37.5039C85.0567 37.5039 93.356 51.1222 94.2145 57.4297C94.9014 62.4756 92.3067 67.7509 90.9234 69.7578C92.1768 72.4238 94.0834 73.2703 96.4389 74.3162L96.504 74.3451C93.0633 77.8753 89.6224 77.9239 84.4844 76.0653C81.9087 78.0722 77.7305 81.7133 62.7345 82.516C43.9896 83.5195 30.6822 71.048 31.3976 59.2932Z" fill="white" stroke="#002B5C" stroke-width="1.77275" stroke-linecap="round" stroke-linejoin="round"/>
<path d="M43.4028 63.7267C43.6494 63.3039 43.5066 62.7611 43.0837 62.5145C42.6609 62.2678 42.1182 62.4106 41.8715 62.8335L43.4028 63.7267ZM77.6736 65.7496L78.5505 65.6207C78.4975 65.2599 78.2288 64.9684 77.8735 64.8861C77.5182 64.8038 77.1488 64.9476 76.9426 65.2484L77.6736 65.7496ZM82.219 70.929C82.6927 70.8054 82.9765 70.3213 82.8529 69.8476C82.7294 69.3739 82.2452 69.0901 81.7715 69.2137L82.219 70.929ZM41.8715 62.8335C41.1736 64.0298 41.082 65.8839 41.5795 67.463C42.0905 69.0849 43.3082 70.6575 45.4499 70.9496L45.6895 69.1931C44.4356 69.0221 43.6468 68.1251 43.2703 66.9303C42.8803 65.6925 43.0202 64.3825 43.4028 63.7267L41.8715 62.8335ZM45.4499 70.9496C46.582 71.1039 47.9079 70.677 49.2146 69.9516C50.5509 69.2097 51.9916 68.0869 53.3972 66.6614C56.2086 63.8101 58.9508 59.6754 60.4626 54.7421L58.7677 54.2227C57.3469 58.8589 54.7642 62.7501 52.1349 65.4167C50.8201 66.7501 49.5115 67.7592 48.3542 68.4016C47.1673 69.0605 46.2552 69.2702 45.6895 69.1931L45.4499 70.9496ZM60.4626 54.7421C61.2081 52.3094 61.4185 50.4506 61.1419 49.1852C61.0009 48.5406 60.7119 47.9563 60.2025 47.5789C59.6736 47.1871 59.0473 47.1211 58.4604 47.2499C57.3603 47.4914 56.2234 48.4389 55.2245 49.729C54.1958 51.0576 53.2074 52.8844 52.4476 55.1237L54.1264 55.6933C54.8329 53.6109 55.7352 51.965 56.6262 50.8143C57.5469 49.6252 58.3586 49.0872 58.8405 48.9814C59.0447 48.9366 59.1178 48.9815 59.1472 49.0033C59.196 49.0395 59.3242 49.1715 59.41 49.5638C59.5868 50.3725 59.4885 51.8707 58.7677 54.2227L60.4626 54.7421ZM52.4476 55.1237C50.9458 59.55 50.5957 63.8673 51.4863 67.14C51.9336 68.7836 52.7063 70.2051 53.8483 71.2208C55.0026 72.2474 56.4798 72.8098 58.226 72.8098V71.0371C56.8853 71.0371 55.8352 70.6155 55.0264 69.8962C54.2052 69.1658 53.5792 68.0792 53.1969 66.6745C52.4283 63.8505 52.6956 59.9103 54.1264 55.6933L52.4476 55.1237ZM58.226 72.8098C60.0615 72.8098 61.9044 71.8683 63.5969 70.5484C65.3076 69.2142 66.974 67.4074 68.4749 65.4847C71.4694 61.6486 73.9139 57.2084 74.8015 54.7875L73.1371 54.1773C72.3269 56.3868 69.9866 60.6671 67.0775 64.3939C65.6265 66.2527 64.0613 67.938 62.5066 69.1505C60.9337 70.3773 59.4775 71.0371 58.226 71.0371V72.8098ZM74.8015 54.7875C75.266 53.5207 75.4275 52.2526 75.3057 51.1908C75.1904 50.1854 74.7812 49.1137 73.839 48.6512C72.8153 48.1487 71.7017 48.6004 70.7485 49.4623C69.772 50.3453 68.7189 51.8489 67.6173 54.0916L69.2084 54.8732C70.2676 52.717 71.2018 51.4424 71.9375 50.7772C72.6966 50.0908 73.0204 50.2242 73.0578 50.2425C73.1767 50.3009 73.4524 50.5895 73.5445 51.3928C73.6301 52.1397 73.5215 53.129 73.1371 54.1773L74.8015 54.7875ZM67.6173 54.0916C65.4027 58.6 64.5779 62.934 64.9071 66.205C65.0713 67.8373 65.5301 69.2692 66.3144 70.3158C67.119 71.3896 68.2582 72.0381 69.6476 72.0381V70.2654C68.8762 70.2654 68.2404 69.9299 67.7331 69.2528C67.2054 68.5486 66.8153 67.4627 66.6709 66.0275C66.3827 63.1632 67.1014 59.1626 69.2084 54.8732L67.6173 54.0916ZM69.6476 72.0381C71.6698 72.0381 73.5619 70.9958 75.0446 69.8206C76.5433 68.6328 77.7442 67.214 78.4046 66.2509L76.9426 65.2484C76.3682 66.086 75.2848 67.3682 73.9435 68.4313C72.5863 69.507 71.0828 70.2654 69.6476 70.2654V72.0381ZM76.7966 65.8786C76.9378 66.8386 77.3433 68.2564 78.1488 69.3652C78.5573 69.9276 79.0962 70.448 79.7936 70.7626C80.5064 71.0841 81.3239 71.1625 82.219 70.929L81.7715 69.2137C81.2466 69.3506 80.8461 69.2926 80.5226 69.1466C80.1836 68.9937 79.8678 68.7153 79.583 68.3233C79.002 67.5234 78.6666 66.4099 78.5505 65.6207L76.7966 65.8786Z" fill="#002B5C"/>
<path d="M55.4476 14.1978C44.6434 13.7348 42.0196 22.2238 45.5695 28.8607C45.1065 30.2498 44.0261 32.8737 43.4087 34.2628C44.0261 34.0158 47.576 32.8737 49.2738 31.9476C49.7369 32.4106 51.5337 33.4911 56.5281 33.4911C62.7019 33.4911 65.9432 27.1629 65.9432 23.9216C65.9432 22.9955 66.2518 14.6609 55.4476 14.1978Z" fill="#4A94E8" stroke="#4A94E8" stroke-width="1.55115" stroke-linecap="round" stroke-linejoin="round"/>
<path d="M51.3464 22.7468C51.4651 23.2217 51.9463 23.5104 52.4213 23.3917C52.8962 23.273 53.1849 22.7917 53.0662 22.3168L51.3464 22.7468ZM57.0971 20.1806L56.3081 20.5845L57.0971 20.1806ZM54.0499 26.0457C54.0499 26.5352 54.4467 26.9321 54.9362 26.9321C55.4258 26.9321 55.8226 26.5352 55.8226 26.0457H54.0499ZM55.977 28.2065C55.977 27.717 55.5801 27.3202 55.0906 27.3202C54.6011 27.3202 54.2042 27.717 54.2042 28.2065H55.977ZM54.2042 28.3609C54.2042 28.8504 54.6011 29.2473 55.0906 29.2473C55.5801 29.2473 55.977 28.8504 55.977 28.3609H54.2042ZM53.0662 22.3168C52.7956 21.2345 53.3744 20.2902 54.193 19.8743C54.5958 19.6697 55.0063 19.6222 55.3503 19.7155C55.6753 19.8036 56.0295 20.0403 56.3081 20.5845L57.886 19.7766C57.4038 18.8348 56.6697 18.2365 55.8143 18.0045C54.9781 17.7777 54.1163 17.925 53.3902 18.2938C51.9509 19.0249 50.8452 20.7422 51.3464 22.7468L53.0662 22.3168ZM56.3081 20.5845C56.5486 21.0541 56.5061 21.2651 56.4652 21.3805C56.397 21.5732 56.2311 21.7779 55.8589 22.165C55.1562 22.8958 54.0499 23.9639 54.0499 26.0457H55.8226C55.8226 24.7319 56.4382 24.1202 57.1367 23.3937C57.4651 23.0522 57.9196 22.5839 58.1362 21.9725C58.3802 21.2839 58.2871 20.5598 57.886 19.7766L56.3081 20.5845ZM54.2042 28.2065V28.3609H55.977V28.2065H54.2042Z" fill="white"/>
<path d="M85.0246 32.2729C74.2208 31.8387 71.5971 39.7981 75.1469 46.021C77.3319 49.8513 82.1743 50.3624 86.105 50.3624C92.2786 50.3624 95.5197 44.4291 95.5197 41.39C95.5197 40.5217 95.8284 32.707 85.0246 32.2729Z" fill="#0F6FDE"/>
<path d="M75.1469 46.021L75.8206 45.6367H75.8206L75.1469 46.021ZM85.0246 32.2729L84.9935 33.0478L85.0246 32.2729ZM75.8206 45.6367C74.1485 42.7056 73.9807 39.4591 75.3752 37.0376C76.7516 34.6478 79.7839 32.8385 84.9935 33.0478L85.0557 31.4979C79.4615 31.2731 75.7801 33.2265 74.0311 36.2635C72.3002 39.2689 72.5954 43.1135 74.4732 46.4053L75.8206 45.6367ZM84.9935 33.0478C90.181 33.2563 92.5426 35.2128 93.659 37.0685C94.811 38.9834 94.7441 40.9558 94.7441 41.39H96.2953C96.2953 40.956 96.3827 38.5869 94.9881 36.2688C93.5579 33.8915 90.6719 31.7236 85.0557 31.4979L84.9935 33.0478ZM94.7441 41.39C94.7441 42.6894 94.025 44.7605 92.5362 46.5139C91.069 48.2419 88.9182 49.5869 86.105 49.5869V51.138C89.4654 51.138 92.0219 49.5163 93.7186 47.5179C95.3939 45.5448 96.2953 43.1297 96.2953 41.39H94.7441ZM86.105 49.5869C84.1616 49.5869 82.0615 49.4587 80.199 48.8867C78.3492 48.3185 76.7867 47.3303 75.8206 45.6367L74.4732 46.4053C75.6921 48.5419 77.6433 49.7244 79.7436 50.3695C81.8312 51.0106 84.1177 51.138 86.105 51.138V49.5869Z" fill="#0F6FDE"/>
<path d="M80.0859 40.7186L83.4231 45.221L89.9641 38.1211" stroke="white" stroke-width="1.77275" stroke-linecap="round" stroke-linejoin="round"/>
</svg>
